<svg width="103" height="23" viewBox="0 0 103 23" fill="none" xmlns="http://www.w3.org/2000/svg">
<path d="M8.99175 4.15292H11V0.654917C10.6535 0.60725 9.46196 0.5 8.07424 0.5C5.17874 0.5 3.19523 2.32142 3.19523 5.66908V8.75H0V12.6605H3.19523V22.5H7.11274V12.6614H10.1787L10.6654 8.75092H7.11182V6.05683C7.11274 4.92658 7.41705 4.15292 8.99175 4.15292Z" fill="white"/>
<path d="M57 4.63092C56.1819 4.99231 55.3101 5.23185 54.4012 5.34815C55.3362 4.786 56.0499 3.90262 56.3854 2.83785C55.5136 3.36123 54.5511 3.73092 53.5254 3.93723C52.6976 3.04969 51.5179 2.5 50.2309 2.5C47.7339 2.5 45.7236 4.54092 45.7236 7.04292C45.7236 7.40292 45.7539 7.74908 45.8281 8.07862C42.0785 7.89446 38.7606 6.08477 36.5317 3.328C36.1426 4.00785 35.9144 4.786 35.9144 5.62369C35.9144 7.19662 36.7187 8.59092 37.9177 9.39815C37.1931 9.38431 36.4822 9.17246 35.88 8.83877C35.88 8.85262 35.88 8.87062 35.88 8.88862C35.88 11.0957 37.4434 12.9289 39.4935 13.3512C39.1264 13.4523 38.7262 13.5008 38.311 13.5008C38.0222 13.5008 37.7308 13.4842 37.4571 13.4232C38.0415 15.2218 39.6997 16.5442 41.6715 16.5871C40.137 17.7958 38.1886 18.5242 36.0794 18.5242C35.7095 18.5242 35.3547 18.5075 35 18.4618C36.9979 19.7592 39.3656 20.5 41.919 20.5C50.2185 20.5 54.756 13.5769 54.756 7.576C54.756 7.37523 54.7491 7.18139 54.7395 6.98892C55.6346 6.34923 56.3867 5.55031 57 4.63092Z" fill="white"/>
<path d="M102.804 6.99608C102.753 5.83438 102.565 5.03573 102.296 4.34368C102.018 3.60909 101.591 2.95141 101.031 2.40468C100.485 1.84944 99.8226 1.41799 99.0965 1.14471C98.4005 0.875599 97.606 0.687739 96.4443 0.636519C95.2739 0.580962 94.9023 0.568115 91.934 0.568115C88.9656 0.568115 88.594 0.580962 87.428 0.632181C86.2663 0.683401 85.4676 0.871428 84.7757 1.14037C84.041 1.41799 83.3833 1.8451 82.8366 2.40468C82.2813 2.95141 81.85 3.61343 81.5766 4.33951C81.3075 5.03573 81.1196 5.83005 81.0684 6.99175C81.0128 8.16212 81 8.53367 81 11.5021C81 14.4705 81.0128 14.842 81.0641 16.0081C81.1153 17.1698 81.3033 17.9684 81.5724 18.6605C81.85 19.395 82.2813 20.0527 82.8366 20.5995C83.3833 21.1547 84.0453 21.5861 84.7714 21.8594C85.4676 22.1285 86.2619 22.3164 87.4238 22.3676C88.5897 22.419 88.9614 22.4317 91.9298 22.4317C94.8982 22.4317 95.2697 22.419 96.4358 22.3676C97.5975 22.3164 98.3961 22.1285 99.088 21.8594C100.557 21.2913 101.719 20.1296 102.287 18.6605C102.556 17.9642 102.744 17.1698 102.795 16.0081C102.847 14.842 102.859 14.4705 102.859 11.5021C102.859 8.53367 102.855 8.16212 102.804 6.99608ZM100.835 15.9226C100.788 16.9904 100.609 17.567 100.459 17.9514C100.092 18.9039 99.3358 19.6598 98.3833 20.0272C97.9989 20.1767 97.4181 20.356 96.3545 20.4029C95.2013 20.4543 94.8555 20.467 91.9383 20.467C89.0211 20.467 88.6709 20.4543 87.5219 20.4029C86.4541 20.356 85.8775 20.1767 85.4931 20.0272C85.0191 19.852 84.5877 19.5744 84.2375 19.2114C83.8745 18.8568 83.5968 18.4297 83.4217 17.9557C83.2722 17.5713 83.0928 16.9904 83.0459 15.927C82.9946 14.7738 82.9819 14.4278 82.9819 11.5106C82.9819 8.5934 82.9946 8.2432 83.0459 7.09435C83.0928 6.02658 83.2722 5.44999 83.4217 5.06559C83.5968 4.59143 83.8745 4.16016 84.2418 3.80979C84.5962 3.44675 85.0233 3.16913 85.4975 2.99412C85.8819 2.84463 86.4628 2.66528 87.5262 2.61823C88.6794 2.56701 89.0255 2.55417 91.9425 2.55417C94.864 2.55417 95.2098 2.56701 96.3589 2.61823C97.4266 2.66528 98.0032 2.84463 98.3876 2.99412C98.8616 3.16913 99.293 3.44675 99.6432 3.80979C100.006 4.16433 100.284 4.59143 100.459 5.06559C100.609 5.44999 100.788 6.03075 100.835 7.09435C100.886 8.24754 100.899 8.5934 100.899 11.5106C100.899 14.4278 100.886 14.7694 100.835 15.9226Z" fill="white"/>
<path d="M91.9338 5.88574C88.8331 5.88574 86.3174 8.40134 86.3174 11.5022C86.3174 14.6031 88.8331 17.1187 91.9338 17.1187C95.0347 17.1187 97.5503 14.6031 97.5503 11.5022C97.5503 8.40134 95.0347 5.88574 91.9338 5.88574ZM91.9338 15.1455C89.9223 15.1455 88.2906 13.5139 88.2906 11.5022C88.2906 9.49046 89.9223 7.85895 91.9338 7.85895C93.9456 7.85895 95.5771 9.49046 95.5771 11.5022C95.5771 13.5139 93.9456 15.1455 91.9338 15.1455Z" fill="white"/>
<path d="M99.0835 5.66348C99.0835 6.38756 98.4964 6.97467 97.7721 6.97467C97.048 6.97467 96.4609 6.38756 96.4609 5.66348C96.4609 4.93923 97.048 4.35229 97.7721 4.35229C98.4964 4.35229 99.0835 4.93923 99.0835 5.66348Z" fill="white"/>
</svg>
