<svg width="20" height="19" viewBox="0 0 20 19" fill="none" xmlns="http://www.w3.org/2000/svg">
<g clip-path="url(#clip0_59_1078)">
<path d="M2.37766 10.1218V8.88064C2.37766 4.5947 5.86451 1.10791 10.1504 1.10791C14.4363 1.10791 17.9231 4.5947 17.9231 8.88064V10.1218C18.9712 10.9104 19.6504 12.1644 19.6504 13.574C19.6504 15.955 17.7133 17.8922 15.3322 17.8922C14.8553 17.8922 14.4686 17.5055 14.4686 17.0285V10.1194C14.4686 9.64248 14.8553 9.2558 15.3322 9.2558C15.6279 9.2558 15.9167 9.2858 16.1958 9.34274V8.88069C16.1958 5.54723 13.4839 2.83524 10.1504 2.83524C6.81693 2.83524 4.10494 5.54723 4.10494 8.88069V9.34274C4.38406 9.2858 4.67286 9.2558 4.96857 9.2558C5.44553 9.2558 5.83221 9.64248 5.83221 10.1194V17.0285C5.83221 17.5055 5.44553 17.8922 4.96857 17.8922C2.58753 17.8922 0.650391 15.955 0.650391 13.574C0.650391 12.1643 1.32955 10.9104 2.37766 10.1218Z" fill="white"/>
</g>
<defs>
<clipPath id="clip0_59_1078">
<rect width="19" height="19" fill="white" transform="matrix(-1 0 0 1 19.6504 0)"/>
</clipPath>
</defs>
</svg>
