<svg width="25" height="25" viewBox="0 0 25 25" fill="none" xmlns="http://www.w3.org/2000/svg">
<g clip-path="url(#clip0_59_1091)">
<path d="M9.65039 22.0547C10.2027 22.0547 10.6504 21.607 10.6504 21.0547C10.6504 20.5024 10.2027 20.0547 9.65039 20.0547C9.09811 20.0547 8.65039 20.5024 8.65039 21.0547C8.65039 21.607 9.09811 22.0547 9.65039 22.0547Z" stroke="white" stroke-width="2" stroke-linecap="round" stroke-linejoin="round"/>
<path d="M20.6504 22.0547C21.2027 22.0547 21.6504 21.607 21.6504 21.0547C21.6504 20.5024 21.2027 20.0547 20.6504 20.0547C20.0981 20.0547 19.6504 20.5024 19.6504 21.0547C19.6504 21.607 20.0981 22.0547 20.6504 22.0547Z" stroke="white" stroke-width="2" stroke-linecap="round" stroke-linejoin="round"/>
<path d="M1.65039 1.05469H5.65039L8.33039 14.4447C8.42184 14.9051 8.6723 15.3187 9.03794 15.613C9.40357 15.9073 9.86109 16.0637 10.3304 16.0547L15.1904 12.0547L20.0504 16.0547C20.5197 16.0637 20.9772 15.9073 21.3428 15.613C21.7085 15.3187 21.9589 14.9051 22.0504 14.4447L23.6504 6.05469" stroke="white" stroke-width="2" stroke-linecap="round" stroke-linejoin="round"/>
</g>
<defs>
<clipPath id="clip0_59_1091">
<rect width="24" height="24" fill="white" transform="translate(0.650391 0.0546875)"/>
</clipPath>
</defs>
</svg>
