<svg width="103" height="22" viewBox="0 0 103 22" fill="none" xmlns="http://www.w3.org/2000/svg">
<path d="M8.99175 3.65292H11V0.154917C10.6535 0.10725 9.46196 0 8.07424 0C5.17874 0 3.19523 1.82142 3.19523 5.16908V8.25H0V12.1605H3.19523V22H7.11274V12.1614H10.1787L10.6654 8.25092H7.11182V5.55683C7.11274 4.42658 7.41705 3.65292 8.99175 3.65292Z" fill="white"/>
<path d="M57 4.13092C56.1819 4.49231 55.3101 4.73185 54.4012 4.84815C55.3363 4.286 56.0499 3.40262 56.3854 2.33785C55.5136 2.86123 54.5511 3.23092 53.5254 3.43723C52.6976 2.54969 51.5179 2 50.2309 2C47.7339 2 45.7236 4.04092 45.7236 6.54292C45.7236 6.90292 45.7539 7.24908 45.8281 7.57862C42.0785 7.39446 38.7606 5.58477 36.5317 2.828C36.1426 3.50785 35.9144 4.286 35.9144 5.12369C35.9144 6.69662 36.7188 8.09092 37.9177 8.89815C37.1931 8.88431 36.4822 8.67246 35.88 8.33877C35.88 8.35262 35.88 8.37062 35.88 8.38862C35.88 10.5957 37.4434 12.4289 39.4935 12.8512C39.1264 12.9523 38.7262 13.0008 38.311 13.0008C38.0222 13.0008 37.7307 12.9842 37.4571 12.9232C38.0415 14.7218 39.6998 16.0442 41.6715 16.0871C40.137 17.2958 38.1886 18.0242 36.0794 18.0242C35.7095 18.0242 35.3547 18.0075 35 17.9618C36.9979 19.2592 39.3656 20 41.919 20C50.2185 20 54.756 13.0769 54.756 7.076C54.756 6.87523 54.7491 6.68139 54.7395 6.48892C55.6346 5.84923 56.3867 5.05031 57 4.13092Z" fill="white"/>
<path d="M102.804 6.49621C102.753 5.33451 102.565 4.53585 102.296 3.8438C102.018 3.10921 101.591 2.45153 101.031 1.9048C100.485 1.34956 99.8226 0.918115 99.0965 0.644832C98.4005 0.375721 97.606 0.187861 96.4443 0.136641C95.2739 0.0810839 94.9023 0.0682373 91.934 0.0682373C88.9656 0.0682373 88.594 0.0810839 87.428 0.132303C86.2663 0.183523 85.4676 0.37155 84.7757 0.640495C84.041 0.918115 83.3833 1.34522 82.8366 1.9048C82.2813 2.45153 81.85 3.11355 81.5766 3.83963C81.3075 4.53585 81.1196 5.33017 81.0684 6.49187C81.0128 7.66224 81 8.03379 81 11.0022C81 13.9706 81.0128 14.3421 81.0641 15.5082C81.1153 16.6699 81.3033 17.4685 81.5724 18.1606C81.85 18.8952 82.2813 19.5528 82.8366 20.0996C83.3833 20.6548 84.0453 21.0863 84.7714 21.3595C85.4676 21.6287 86.2619 21.8165 87.4238 21.8677C88.5897 21.9191 88.9614 21.9318 91.9298 21.9318C94.8982 21.9318 95.2697 21.9191 96.4358 21.8677C97.5975 21.8165 98.3961 21.6287 99.088 21.3595C100.557 20.7915 101.719 19.6298 102.287 18.1606C102.556 17.4644 102.744 16.6699 102.795 15.5082C102.847 14.3421 102.859 13.9706 102.859 11.0022C102.859 8.03379 102.855 7.66224 102.804 6.49621ZM100.835 15.4228C100.788 16.4905 100.609 17.0671 100.459 17.4515C100.092 18.404 99.3358 19.1599 98.3833 19.5273C97.9989 19.6768 97.4181 19.8562 96.3545 19.903C95.2013 19.9544 94.8555 19.9671 91.9383 19.9671C89.0211 19.9671 88.6709 19.9544 87.5219 19.903C86.4541 19.8562 85.8775 19.6768 85.4931 19.5273C85.0191 19.3521 84.5877 19.0745 84.2375 18.7115C83.8745 18.3569 83.5968 17.9298 83.4217 17.4559C83.2722 17.0715 83.0928 16.4905 83.0459 15.4271C82.9946 14.2739 82.9819 13.9279 82.9819 11.0107C82.9819 8.09352 82.9946 7.74333 83.0459 6.59447C83.0928 5.5267 83.2722 4.95011 83.4217 4.56571C83.5968 4.09156 83.8745 3.66028 84.2418 3.30992C84.5962 2.94688 85.0233 2.66926 85.4975 2.49424C85.8819 2.34475 86.4628 2.1654 87.5262 2.11835C88.6794 2.06713 89.0255 2.05429 91.9425 2.05429C94.864 2.05429 95.2098 2.06713 96.3589 2.11835C97.4266 2.1654 98.0032 2.34475 98.3876 2.49424C98.8616 2.66926 99.293 2.94688 99.6432 3.30992C100.006 3.66445 100.284 4.09156 100.459 4.56571C100.609 4.95011 100.788 5.53088 100.835 6.59447C100.886 7.74766 100.899 8.09352 100.899 11.0107C100.899 13.9279 100.886 14.2696 100.835 15.4228Z" fill="white"/>
<path d="M91.9338 5.38574C88.8331 5.38574 86.3174 7.90134 86.3174 11.0022C86.3174 14.1031 88.8331 16.6187 91.9338 16.6187C95.0347 16.6187 97.5503 14.1031 97.5503 11.0022C97.5503 7.90134 95.0347 5.38574 91.9338 5.38574ZM91.9338 14.6455C89.9223 14.6455 88.2906 13.0139 88.2906 11.0022C88.2906 8.99046 89.9223 7.35895 91.9338 7.35895C93.9456 7.35895 95.5771 8.99046 95.5771 11.0022C95.5771 13.0139 93.9456 14.6455 91.9338 14.6455Z" fill="white"/>
<path d="M99.084 5.16373C99.084 5.88781 98.4969 6.47491 97.7726 6.47491C97.0485 6.47491 96.4614 5.88781 96.4614 5.16373C96.4614 4.43948 97.0485 3.85254 97.7726 3.85254C98.4969 3.85254 99.084 4.43948 99.084 5.16373Z" fill="white"/>
</svg>
