<svg width="24" height="25" viewBox="0 0 24 25" fill="none" xmlns="http://www.w3.org/2000/svg">
<path d="M20.25 5.00012H16.5V4.25012C16.5 3.65338 16.2629 3.08109 15.841 2.65913C15.419 2.23718 14.8467 2.00012 14.25 2.00012H9.75C9.15326 2.00012 8.58097 2.23718 8.15901 2.65913C7.73705 3.08109 7.5 3.65338 7.5 4.25012V5.00012H3.75C3.55109 5.00012 3.36032 5.07914 3.21967 5.21979C3.07902 5.36044 3 5.55121 3 5.75012C3 5.94903 3.07902 6.1398 3.21967 6.28045C3.36032 6.4211 3.55109 6.50012 3.75 6.50012H4.5V20.0001C4.5 20.3979 4.65804 20.7795 4.93934 21.0608C5.22064 21.3421 5.60218 21.5001 6 21.5001H18C18.3978 21.5001 18.7794 21.3421 19.0607 21.0608C19.342 20.7795 19.5 20.3979 19.5 20.0001V6.50012H20.25C20.4489 6.50012 20.6397 6.4211 20.7803 6.28045C20.921 6.1398 21 5.94903 21 5.75012C21 5.55121 20.921 5.36044 20.7803 5.21979C20.6397 5.07914 20.4489 5.00012 20.25 5.00012ZM10.5 16.2501C10.5 16.449 10.421 16.6398 10.2803 16.7805C10.1397 16.9211 9.94891 17.0001 9.75 17.0001C9.55109 17.0001 9.36032 16.9211 9.21967 16.7805C9.07902 16.6398 9 16.449 9 16.2501V10.2501C9 10.0512 9.07902 9.86044 9.21967 9.71979C9.36032 9.57914 9.55109 9.50012 9.75 9.50012C9.94891 9.50012 10.1397 9.57914 10.2803 9.71979C10.421 9.86044 10.5 10.0512 10.5 10.2501V16.2501ZM15 16.2501C15 16.449 14.921 16.6398 14.7803 16.7805C14.6397 16.9211 14.4489 17.0001 14.25 17.0001C14.0511 17.0001 13.8603 16.9211 13.7197 16.7805C13.579 16.6398 13.5 16.449 13.5 16.2501V10.2501C13.5 10.0512 13.579 9.86044 13.7197 9.71979C13.8603 9.57914 14.0511 9.50012 14.25 9.50012C14.4489 9.50012 14.6397 9.57914 14.7803 9.71979C14.921 9.86044 15 10.0512 15 10.2501V16.2501ZM15 5.00012H9V4.25012C9 4.05121 9.07902 3.86044 9.21967 3.71979C9.36032 3.57914 9.55109 3.50012 9.75 3.50012H14.25C14.4489 3.50012 14.6397 3.57914 14.7803 3.71979C14.921 3.86044 15 4.05121 15 4.25012V5.00012Z" fill="#FF3333"/>
</svg>
