<svg width="20" height="21" viewBox="0 0 20 21" fill="none" xmlns="http://www.w3.org/2000/svg">
<path d="M17.8125 10.5001C17.8125 10.7488 17.7137 10.9872 17.5379 11.163C17.3621 11.3389 17.1236 11.4376 16.875 11.4376H10.9375V17.3751C10.9375 17.6238 10.8387 17.8622 10.6629 18.038C10.4871 18.2139 10.2486 18.3126 10 18.3126C9.75136 18.3126 9.5129 18.2139 9.33709 18.038C9.16127 17.8622 9.0625 17.6238 9.0625 17.3751V11.4376H3.125C2.87636 11.4376 2.6379 11.3389 2.46209 11.163C2.28627 10.9872 2.1875 10.7488 2.1875 10.5001C2.1875 10.2515 2.28627 10.013 2.46209 9.83721C2.6379 9.66139 2.87636 9.56262 3.125 9.56262H9.0625V3.62512C9.0625 3.37648 9.16127 3.13802 9.33709 2.96221C9.5129 2.78639 9.75136 2.68762 10 2.68762C10.2486 2.68762 10.4871 2.78639 10.6629 2.96221C10.8387 3.13802 10.9375 3.37648 10.9375 3.62512V9.56262H16.875C17.1236 9.56262 17.3621 9.66139 17.5379 9.83721C17.7137 10.013 17.8125 10.2515 17.8125 10.5001Z" fill="black"/>
</svg>
