<svg width="67" height="37" viewBox="0 0 67 37" fill="none" xmlns="http://www.w3.org/2000/svg">
<path d="M19.845 0C8.88891 0 0 8.10318 0 18.0908C0 28.0785 8.88891 36.1816 19.845 36.1816H46.305C57.2611 36.1816 66.15 28.0785 66.15 18.0908C66.15 8.10318 57.2611 0 46.305 0H19.845ZM51.2662 9.79919C52.3627 9.79919 53.4143 10.1963 54.1897 10.9031C54.965 11.6099 55.4006 12.5685 55.4006 13.5681C55.4006 14.5677 54.965 15.5263 54.1897 16.2331C53.4143 16.94 52.3627 17.337 51.2662 17.337C50.1697 17.337 49.1181 16.94 48.3428 16.2331C47.5675 15.5263 47.1319 14.5677 47.1319 13.5681C47.1319 12.5685 47.5675 11.6099 48.3428 10.9031C49.1181 10.1963 50.1697 9.79919 51.2662 9.79919ZM40.5169 22.6135C40.5169 21.6139 40.9525 20.6553 41.7278 19.9485C42.5031 19.2417 43.5547 18.8446 44.6512 18.8446C45.7477 18.8446 46.7993 19.2417 47.5747 19.9485C48.35 20.6553 48.7856 21.6139 48.7856 22.6135C48.7856 23.6131 48.35 24.5717 47.5747 25.2786C46.7993 25.9854 45.7477 26.3824 44.6512 26.3824C43.5547 26.3824 42.5031 25.9854 41.7278 25.2786C40.9525 24.5717 40.5169 23.6131 40.5169 22.6135ZM17.3644 12.8143C17.3644 11.5612 18.4703 10.553 19.845 10.553C21.2197 10.553 22.3256 11.5612 22.3256 12.8143V15.8295H25.6331C27.0078 15.8295 28.1137 16.8377 28.1137 18.0908C28.1137 19.344 27.0078 20.3522 25.6331 20.3522H22.3256V23.3673C22.3256 24.6205 21.2197 25.6287 19.845 25.6287C18.4703 25.6287 17.3644 24.6205 17.3644 23.3673V20.3522H14.0569C12.6822 20.3522 11.5762 19.344 11.5762 18.0908C11.5762 16.8377 12.6822 15.8295 14.0569 15.8295H17.3644V12.8143Z" fill="white"/>
</svg>
