<svg width="35" height="18" viewBox="0 0 35 18" fill="none" xmlns="http://www.w3.org/2000/svg">
<path d="M0.715527 9.04587C0.700857 9.03013 0.686651 9.01484 0.672913 9C0.686651 8.98517 0.700857 8.96987 0.715527 8.95413C0.939618 8.71361 1.27181 8.36821 1.70057 7.95288C2.5586 7.12172 3.80059 6.01318 5.33433 4.90532C8.41231 2.68202 12.6118 0.5 17.213 0.5C21.8141 0.5 26.0136 2.68202 29.0916 4.90532C30.6253 6.01318 31.8673 7.12172 32.7254 7.95288C33.1541 8.36821 33.4863 8.71361 33.7104 8.95413C33.7251 8.96987 33.7393 8.98517 33.753 9C33.7393 9.01484 33.7251 9.03013 33.7104 9.04587C33.4863 9.28639 33.1541 9.63179 32.7254 10.0471C31.8673 10.8783 30.6253 11.9868 29.0916 13.0947C26.0136 15.318 21.8141 17.5 17.213 17.5C12.6118 17.5 8.41231 15.318 5.33433 13.0947C3.80059 11.9868 2.5586 10.8783 1.70057 10.0471C1.27181 9.63179 0.939618 9.28639 0.715527 9.04587Z" stroke="#A6A6A6"/>
</svg>
