<svg width="35" height="19" viewBox="0 0 35 19" fill="none" xmlns="http://www.w3.org/2000/svg">
<path d="M0.857129 9.22581C0.842459 9.21006 0.828253 9.19477 0.814515 9.17993C0.828253 9.1651 0.842459 9.1498 0.857129 9.13406C1.08122 8.89355 1.41341 8.54815 1.84217 8.13281C2.7002 7.30165 3.94219 6.19312 5.47593 5.08525C8.55391 2.86195 12.7534 0.679932 17.3546 0.679932C21.9557 0.679932 26.1552 2.86195 29.2332 5.08525C30.7669 6.19312 32.0089 7.30165 32.867 8.13281C33.2957 8.54815 33.6279 8.89355 33.852 9.13406C33.8667 9.1498 33.8809 9.1651 33.8946 9.17993C33.8809 9.19477 33.8667 9.21006 33.852 9.22581C33.6279 9.46632 33.2957 9.81172 32.867 10.2271C32.0089 11.0582 30.7669 12.1667 29.2332 13.2746C26.1552 15.4979 21.9557 17.6799 17.3546 17.6799C12.7534 17.6799 8.55391 15.4979 5.47593 13.2746C3.94219 12.1667 2.7002 11.0582 1.84217 10.2271C1.41341 9.81172 1.08122 9.46632 0.857129 9.22581Z" stroke="#A6A6A6"/>
</svg>
