<svg width="331" height="62" viewBox="0 0 331 62" fill="none" xmlns="http://www.w3.org/2000/svg">
<g clip-path="url(#clip0_6_731)">
<path d="M133.892 50.1799C144.661 50.1799 153.392 41.4495 153.392 30.6799C153.392 19.9104 144.661 11.1799 133.892 11.1799C123.122 11.1799 114.392 19.9104 114.392 30.6799C114.392 41.4495 123.122 50.1799 133.892 50.1799Z" fill="#3B5998"/>
<path d="M138.794 31.4433H135.314V44.1907H130.043V31.4433H127.535V26.9633H130.043V24.0643C130.043 21.9912 131.027 18.7449 135.361 18.7449L139.266 18.7612V23.1098H136.433C135.968 23.1098 135.315 23.342 135.315 24.3309V26.9675H139.255L138.794 31.4433Z" fill="white"/>
</g>
<g clip-path="url(#clip1_6_731)">
<path d="M200.624 30.6799C200.624 32.7413 198.953 34.4124 196.892 34.4124C194.83 34.4124 193.159 32.7413 193.159 30.6799C193.159 28.6185 194.83 26.9475 196.892 26.9475C198.953 26.9475 200.624 28.6185 200.624 30.6799Z" fill="#3B5998"/>
<path d="M205.621 24.0763C205.441 23.5902 205.155 23.1501 204.783 22.7889C204.422 22.4169 203.982 22.1307 203.495 21.9513C203.101 21.798 202.508 21.6156 201.416 21.5659C200.236 21.5121 199.881 21.5005 196.892 21.5005C193.902 21.5005 193.548 21.5118 192.367 21.5657C191.275 21.6156 190.682 21.798 190.288 21.9513C189.801 22.1307 189.361 22.4169 189 22.7889C188.629 23.1501 188.342 23.5899 188.163 24.0763C188.009 24.4709 187.827 25.0639 187.777 26.1556C187.723 27.3363 187.712 27.6903 187.712 30.6804C187.712 33.6701 187.723 34.0242 187.777 35.2052C187.827 36.2969 188.009 36.8896 188.163 37.2841C188.342 37.7706 188.628 38.2104 189 38.5716C189.361 38.9436 189.801 39.2298 190.288 39.4092C190.682 39.5627 191.275 39.7451 192.367 39.7948C193.548 39.8487 193.901 39.86 196.891 39.86C199.882 39.86 200.236 39.8487 201.416 39.7948C202.508 39.7451 203.101 39.5627 203.495 39.4092C204.472 39.0325 205.244 38.2607 205.621 37.2841C205.774 36.8896 205.956 36.2969 206.006 35.2052C206.06 34.0242 206.071 33.6701 206.071 30.6804C206.071 27.6903 206.06 27.3363 206.006 26.1556C205.956 25.0639 205.774 24.4709 205.621 24.0763ZM196.892 36.4299C193.716 36.4299 191.142 33.8558 191.142 30.6801C191.142 27.5044 193.716 24.9303 196.892 24.9303C200.067 24.9303 202.641 27.5044 202.641 30.6801C202.641 33.8558 200.067 36.4299 196.892 36.4299ZM202.869 26.0467C202.127 26.0467 201.525 25.4451 201.525 24.703C201.525 23.9609 202.127 23.3593 202.869 23.3593C203.611 23.3593 204.213 23.9609 204.213 24.703C204.212 25.4451 203.611 26.0467 202.869 26.0467Z" fill="#3B5998"/>
<path d="M196.892 11.1799C186.124 11.1799 177.392 19.912 177.392 30.6799C177.392 41.4478 186.124 50.1799 196.892 50.1799C207.66 50.1799 216.392 41.4478 216.392 30.6799C216.392 19.912 207.66 11.1799 196.892 11.1799ZM208.021 35.2964C207.967 36.4883 207.778 37.3021 207.501 38.0145C206.919 39.5185 205.73 40.7075 204.226 41.2892C203.514 41.566 202.7 41.7552 201.508 41.8097C200.314 41.8641 199.933 41.8772 196.892 41.8772C193.851 41.8772 193.47 41.8641 192.275 41.8097C191.084 41.7552 190.27 41.566 189.558 41.2892C188.81 41.0081 188.133 40.5674 187.574 39.9976C187.005 39.4385 186.564 38.7616 186.283 38.0145C186.006 37.3024 185.816 36.4883 185.762 35.2967C185.707 34.1023 185.694 33.7209 185.694 30.6799C185.694 27.639 185.707 27.2576 185.762 26.0635C185.816 24.8715 186.005 24.0577 186.282 23.3454C186.563 22.5983 187.004 21.9214 187.574 21.3623C188.133 20.7925 188.81 20.3518 189.557 20.0706C190.27 19.7939 191.083 19.6047 192.275 19.5502C193.469 19.4958 193.851 19.4827 196.892 19.4827C199.933 19.4827 200.314 19.4958 201.508 19.5505C202.7 19.6047 203.514 19.7939 204.226 20.0703C204.973 20.3515 205.65 20.7925 206.21 21.3623C206.779 21.9217 207.22 22.5983 207.501 23.3454C207.778 24.0577 207.967 24.8715 208.022 26.0635C208.076 27.2576 208.089 27.639 208.089 30.6799C208.089 33.7209 208.076 34.1023 208.021 35.2964Z" fill="#3B5998"/>
</g>
<defs>
<clipPath id="clip0_6_731">
<rect width="39" height="39" fill="white" transform="translate(114.392 11.1799)"/>
</clipPath>
<clipPath id="clip1_6_731">
<rect width="39" height="39" fill="white" transform="translate(177.392 11.1799)"/>
</clipPath>
</defs>
</svg>
