<svg width="26" height="25" viewBox="0 0 26 25" fill="none" xmlns="http://www.w3.org/2000/svg">
<path d="M19.821 11.1799H5.21606C4.06376 11.1799 3.12964 12.0754 3.12964 13.1799V20.1799C3.12964 21.2845 4.06376 22.1799 5.21606 22.1799H19.821C20.9733 22.1799 21.9074 21.2845 21.9074 20.1799V13.1799C21.9074 12.0754 20.9733 11.1799 19.821 11.1799Z" stroke="#0AAEB9" stroke-width="2" stroke-linecap="round" stroke-linejoin="round"/>
<path d="M7.30249 11.1799V7.17993C7.30249 5.85385 7.85204 4.58208 8.83024 3.6444C9.80843 2.70672 11.1352 2.17993 12.5185 2.17993C13.9019 2.17993 15.2286 2.70672 16.2068 3.6444C17.185 4.58208 17.7346 5.85385 17.7346 7.17993V11.1799" stroke="#0AAEB9" stroke-width="2" stroke-linecap="round" stroke-linejoin="round"/>
</svg>
