<svg width="213" height="214" viewBox="0 0 213 214" fill="none" xmlns="http://www.w3.org/2000/svg">
<path d="M134.706 14.5452C118.814 9.98935 102.215 19.2265 97.6805 35.1929L95.3092 43.5522C93.7699 48.9858 90.9826 54.0015 87.1969 58.1811L65.8553 81.7546C62.1527 85.8507 62.4439 92.2038 66.5209 95.9237C70.5978 99.6437 76.9213 99.3511 80.6238 95.255L101.965 71.6815C107.831 65.203 112.116 57.4706 114.488 49.0694L116.859 40.7101C118.356 35.4018 123.889 32.3089 129.214 33.8136C134.539 35.3183 137.576 40.8772 136.079 46.2272L133.707 54.5866C131.336 62.9042 127.592 70.762 122.641 77.7839C120.478 80.8351 120.229 84.8476 121.934 88.1913C123.64 91.5351 127.051 93.6249 130.795 93.6249H186.375C190.036 93.6249 193.031 96.6343 193.031 100.312C193.031 103.155 191.242 105.621 188.705 106.582C185.626 107.752 183.296 110.344 182.506 113.562C181.716 116.78 182.548 120.166 184.711 122.632C185.751 123.802 186.375 125.349 186.375 127.062C186.375 130.323 184.045 133.039 180.967 133.625C177.555 134.293 174.685 136.676 173.479 139.978C172.272 143.28 172.813 146.958 174.976 149.716C175.85 150.845 176.391 152.266 176.391 153.854C176.391 156.655 174.643 159.121 172.147 160.082C167.363 161.963 164.784 167.146 166.157 172.119C166.323 172.663 166.406 173.29 166.406 173.917C166.406 177.595 163.411 180.604 159.75 180.604H119.188C113.947 180.604 108.788 179.058 104.42 176.132L78.7518 158.953C74.1756 155.86 67.977 157.114 64.8984 161.754C61.8199 166.393 63.068 172.579 67.6857 175.672L93.3539 192.851C101.009 197.992 109.995 200.708 119.188 200.708H159.75C174.186 200.708 185.917 189.173 186.375 174.794C192.449 169.904 196.359 162.381 196.359 153.896C196.359 152.015 196.151 150.218 195.819 148.462C202.225 143.572 206.344 135.84 206.344 127.146C206.344 124.429 205.928 121.796 205.179 119.33C210.005 114.398 213 107.71 213 100.312C213 85.5581 201.102 73.5624 186.375 73.5624H147.977C149.932 69.2155 151.596 64.7015 152.886 60.1038L155.257 51.7444C159.792 35.778 150.598 19.1011 134.706 14.5452ZM13.3125 80.2499C5.94902 80.2499 0 86.2269 0 93.6249V187.25C0 194.648 5.94902 200.625 13.3125 200.625H39.9375C47.301 200.625 53.25 194.648 53.25 187.25V93.6249C53.25 86.2269 47.301 80.2499 39.9375 80.2499H13.3125Z" fill="black"/>
</svg>
