<svg width="103" height="23" viewBox="0 0 103 23" fill="none" xmlns="http://www.w3.org/2000/svg">
<path d="M8.99175 4.15292H11V0.654917C10.6535 0.60725 9.46196 0.5 8.07424 0.5C5.17874 0.5 3.19523 2.32142 3.19523 5.66908V8.75H0V12.6605H3.19523V22.5H7.11274V12.6614H10.1787L10.6654 8.75092H7.11182V6.05683C7.11274 4.92658 7.41705 4.15292 8.99175 4.15292Z" fill="white"/>
<path d="M57 4.63092C56.1819 4.99231 55.3101 5.23185 54.4012 5.34815C55.3362 4.786 56.0499 3.90262 56.3854 2.83785C55.5136 3.36123 54.5511 3.73092 53.5254 3.93723C52.6976 3.04969 51.5179 2.5 50.2309 2.5C47.7339 2.5 45.7236 4.54092 45.7236 7.04292C45.7236 7.40292 45.7539 7.74908 45.8281 8.07862C42.0785 7.89446 38.7606 6.08477 36.5317 3.328C36.1426 4.00785 35.9144 4.786 35.9144 5.62369C35.9144 7.19662 36.7187 8.59092 37.9177 9.39815C37.1931 9.38431 36.4822 9.17246 35.88 8.83877C35.88 8.85262 35.88 8.87062 35.88 8.88862C35.88 11.0957 37.4434 12.9289 39.4935 13.3512C39.1264 13.4523 38.7262 13.5008 38.311 13.5008C38.0222 13.5008 37.7308 13.4842 37.4571 13.4232C38.0415 15.2218 39.6997 16.5442 41.6715 16.5871C40.137 17.7958 38.1886 18.5242 36.0794 18.5242C35.7095 18.5242 35.3547 18.5075 35 18.4618C36.9979 19.7592 39.3656 20.5 41.919 20.5C50.2185 20.5 54.756 13.5769 54.756 7.576C54.756 7.37523 54.7491 7.18139 54.7395 6.98892C55.6346 6.34923 56.3867 5.55031 57 4.63092Z" fill="white"/>
<path d="M102.804 6.99621C102.753 5.83451 102.565 5.03585 102.296 4.3438C102.018 3.60921 101.591 2.95153 101.031 2.4048C100.485 1.84956 99.8226 1.41811 99.0965 1.14483C98.4005 0.875721 97.606 0.687861 96.4443 0.636641C95.2739 0.581084 94.9023 0.568237 91.934 0.568237C88.9656 0.568237 88.594 0.581084 87.428 0.632303C86.2663 0.683523 85.4676 0.87155 84.7757 1.14049C84.041 1.41811 83.3833 1.84522 82.8366 2.4048C82.2813 2.95153 81.85 3.61355 81.5766 4.33963C81.3075 5.03585 81.1196 5.83017 81.0684 6.99187C81.0128 8.16224 81 8.53379 81 11.5022C81 14.4706 81.0128 14.8421 81.0641 16.0082C81.1153 17.1699 81.3033 17.9685 81.5724 18.6606C81.85 19.3952 82.2813 20.0528 82.8366 20.5996C83.3833 21.1548 84.0453 21.5863 84.7714 21.8595C85.4676 22.1287 86.2619 22.3165 87.4238 22.3677C88.5897 22.4191 88.9614 22.4318 91.9298 22.4318C94.8982 22.4318 95.2697 22.4191 96.4358 22.3677C97.5975 22.3165 98.3961 22.1287 99.088 21.8595C100.557 21.2915 101.719 20.1298 102.287 18.6606C102.556 17.9644 102.744 17.1699 102.795 16.0082C102.847 14.8421 102.859 14.4706 102.859 11.5022C102.859 8.53379 102.855 8.16224 102.804 6.99621ZM100.835 15.9228C100.788 16.9905 100.609 17.5671 100.459 17.9515C100.092 18.904 99.3358 19.6599 98.3833 20.0273C97.9989 20.1768 97.4181 20.3562 96.3545 20.403C95.2013 20.4544 94.8555 20.4671 91.9383 20.4671C89.0211 20.4671 88.6709 20.4544 87.5219 20.403C86.4541 20.3562 85.8775 20.1768 85.4931 20.0273C85.0191 19.8521 84.5877 19.5745 84.2375 19.2115C83.8745 18.8569 83.5968 18.4298 83.4217 17.9559C83.2722 17.5715 83.0928 16.9905 83.0459 15.9271C82.9946 14.7739 82.9819 14.4279 82.9819 11.5107C82.9819 8.59352 82.9946 8.24333 83.0459 7.09447C83.0928 6.0267 83.2722 5.45011 83.4217 5.06571C83.5968 4.59156 83.8745 4.16028 84.2418 3.80992C84.5962 3.44688 85.0233 3.16926 85.4975 2.99424C85.8819 2.84475 86.4628 2.6654 87.5262 2.61835C88.6794 2.56713 89.0255 2.55429 91.9425 2.55429C94.864 2.55429 95.2098 2.56713 96.3589 2.61835C97.4266 2.6654 98.0032 2.84475 98.3876 2.99424C98.8616 3.16926 99.293 3.44688 99.6432 3.80992C100.006 4.16445 100.284 4.59156 100.459 5.06571C100.609 5.45011 100.788 6.03088 100.835 7.09447C100.886 8.24766 100.899 8.59352 100.899 11.5107C100.899 14.4279 100.886 14.7696 100.835 15.9228Z" fill="white"/>
<path d="M91.934 5.88574C88.8333 5.88574 86.3175 8.40134 86.3175 11.5022C86.3175 14.6031 88.8333 17.1187 91.934 17.1187C95.0348 17.1187 97.5504 14.6031 97.5504 11.5022C97.5504 8.40134 95.0348 5.88574 91.934 5.88574ZM91.934 15.1455C89.9224 15.1455 88.2907 13.5139 88.2907 11.5022C88.2907 9.49046 89.9224 7.85895 91.934 7.85895C93.9457 7.85895 95.5772 9.49046 95.5772 11.5022C95.5772 13.5139 93.9457 15.1455 91.934 15.1455Z" fill="white"/>
<path d="M99.0838 5.66373C99.0838 6.38781 98.4967 6.97491 97.7725 6.97491C97.0484 6.97491 96.4613 6.38781 96.4613 5.66373C96.4613 4.93948 97.0484 4.35254 97.7725 4.35254C98.4967 4.35254 99.0838 4.93948 99.0838 5.66373Z" fill="white"/>
</svg>
