<svg width="20" height="19" viewBox="0 0 20 19" fill="none" xmlns="http://www.w3.org/2000/svg">
<g clip-path="url(#clip0_208_179)">
<path d="M2.3773 10.1218V8.88064C2.3773 4.5947 5.86414 1.10791 10.15 1.10791C14.4359 1.10791 17.9228 4.5947 17.9228 8.88064V10.1218C18.9709 10.9104 19.65 12.1644 19.65 13.574C19.65 15.955 17.7129 17.8922 15.3318 17.8922C14.8549 17.8922 14.4682 17.5055 14.4682 17.0285V10.1194C14.4682 9.64248 14.8549 9.2558 15.3318 9.2558C15.6276 9.2558 15.9164 9.2858 16.1955 9.34274V8.88069C16.1955 5.54723 13.4835 2.83524 10.15 2.83524C6.81656 2.83524 4.10457 5.54723 4.10457 8.88069V9.34274C4.3837 9.2858 4.6725 9.2558 4.96821 9.2558C5.44516 9.2558 5.83184 9.64248 5.83184 10.1194V17.0285C5.83184 17.5055 5.44516 17.8922 4.96821 17.8922C2.58716 17.8922 0.650024 15.955 0.650024 13.574C0.650024 12.1643 1.32919 10.9104 2.3773 10.1218Z" fill="white"/>
</g>
<defs>
<clipPath id="clip0_208_179">
<rect width="19" height="19" fill="white" transform="matrix(-1 0 0 1 19.65 0)"/>
</clipPath>
</defs>
</svg>
