<svg width="100" height="100" viewBox="0 0 100 100" fill="none" xmlns="http://www.w3.org/2000/svg">
<path d="M86.6741 20.332C86.6384 20.1227 86.5211 19.9306 86.3421 19.7882C86.1632 19.6459 85.9335 19.562 85.6919 19.5508C85.2455 19.5508 77.3883 19.3945 77.3883 19.3945C77.3883 19.3945 72.5669 15.332 70.7812 13.7695V98.2813L98.8392 92.1875C98.8392 92.1875 86.7633 20.8008 86.6741 20.332ZM64.4419 13.7695C64.014 12.5874 63.4765 11.4377 62.8348 10.332C60.491 6.42579 57.0089 4.29688 52.9017 4.29688C52.6015 4.28775 52.3011 4.31403 52.0089 4.37501C51.9196 4.21876 51.741 4.14063 51.6517 3.98438C49.866 2.26563 47.5446 1.48438 44.7767 1.56251C39.4196 1.71876 34.0624 5.07813 29.7544 11.0938C26.7187 15.3125 24.3973 20.625 23.7723 24.7852C17.6116 26.4258 13.3258 27.5977 13.2366 27.6758C10.1116 28.5352 10.0223 28.6133 9.66513 31.1914C9.39727 33.1445 1.18298 88.1836 1.18298 88.1836L68.7276 98.4375V12.832C68.3989 12.8429 68.0711 12.869 67.7455 12.9102C67.7455 12.9102 66.4955 13.2227 64.4419 13.7695ZM52.0982 17.1289C48.5267 18.0664 44.5982 19.1602 40.7589 20.1758C41.8303 16.5039 43.9732 12.832 46.4732 10.4102C47.4553 9.55079 48.7946 8.53517 50.3124 7.91017C51.8303 10.7227 52.1874 14.5508 52.0982 17.1289ZM44.7767 4.76563C45.9016 4.73779 47.0135 4.98102 47.991 5.46876C46.5624 6.09376 45.1339 7.10939 43.7946 8.28126C40.4017 11.4844 37.8124 16.4844 36.741 21.2695C33.5267 22.1289 30.3124 22.9883 27.366 23.7695C29.308 16.2695 36.5624 4.92188 44.7767 4.76563ZM34.4196 47.7734C34.7767 52.7734 49.8883 53.8672 50.7812 65.6836C51.4062 74.9805 45.1562 81.3281 36.116 81.7969C25.2232 82.4219 19.2187 76.7969 19.2187 76.7969L21.5401 68.2031C21.5401 68.2031 27.5223 72.1875 32.3437 71.875C35.4687 71.7188 36.6294 69.4531 36.5401 67.8906C36.0937 61.3281 23.7723 61.7188 22.9687 50.918C22.2544 41.8555 29.0401 32.6953 44.0624 31.8359C49.866 31.5234 52.8124 32.7734 52.8124 32.7734L49.4196 44.0234C49.4196 44.0234 45.5803 42.4609 41.0267 42.7734C34.4196 43.1641 34.3303 46.8359 34.4196 47.7734ZM55.6696 16.1914C55.6696 13.8477 55.3124 10.4883 54.0624 7.67579C58.1696 8.37892 60.1339 12.3633 61.0267 14.7852C59.4196 15.1758 57.6339 15.6445 55.6696 16.1914Z" fill="black"/>
</svg>
