<svg width="103" height="23" viewBox="0 0 103 23" fill="none" xmlns="http://www.w3.org/2000/svg">
<path d="M8.99175 4.15292H11V0.654917C10.6535 0.60725 9.46196 0.5 8.07424 0.5C5.17874 0.5 3.19523 2.32142 3.19523 5.66908V8.75H0V12.6605H3.19523V22.5H7.11274V12.6614H10.1787L10.6654 8.75092H7.11182V6.05683C7.11274 4.92658 7.41705 4.15292 8.99175 4.15292Z" fill="white"/>
<path d="M57 4.63092C56.1819 4.99231 55.3101 5.23185 54.4012 5.34815C55.3363 4.786 56.0499 3.90262 56.3854 2.83785C55.5136 3.36123 54.5511 3.73092 53.5254 3.93723C52.6976 3.04969 51.5179 2.5 50.2309 2.5C47.7339 2.5 45.7236 4.54092 45.7236 7.04292C45.7236 7.40292 45.7539 7.74908 45.8281 8.07862C42.0785 7.89446 38.7606 6.08477 36.5317 3.328C36.1426 4.00785 35.9144 4.786 35.9144 5.62369C35.9144 7.19662 36.7188 8.59092 37.9177 9.39815C37.1931 9.38431 36.4822 9.17246 35.88 8.83877C35.88 8.85262 35.88 8.87062 35.88 8.88862C35.88 11.0957 37.4434 12.9289 39.4935 13.3512C39.1264 13.4523 38.7262 13.5008 38.311 13.5008C38.0222 13.5008 37.7307 13.4842 37.4571 13.4232C38.0415 15.2218 39.6998 16.5442 41.6715 16.5871C40.137 17.7958 38.1886 18.5242 36.0794 18.5242C35.7095 18.5242 35.3547 18.5075 35 18.4618C36.9979 19.7592 39.3656 20.5 41.919 20.5C50.2185 20.5 54.756 13.5769 54.756 7.576C54.756 7.37523 54.7491 7.18139 54.7395 6.98892C55.6346 6.34923 56.3867 5.55031 57 4.63092Z" fill="white"/>
<path d="M102.804 6.99618C102.753 5.83449 102.565 5.03583 102.296 4.34378C102.018 3.60919 101.591 2.95151 101.031 2.40478C100.485 1.84954 99.8226 1.41809 99.0965 1.14481C98.4005 0.8757 97.606 0.68784 96.4443 0.63662C95.2739 0.581063 94.9023 0.568216 91.934 0.568216C88.9656 0.568216 88.594 0.581063 87.428 0.632282C86.2663 0.683502 85.4676 0.871529 84.7757 1.14047C84.041 1.41809 83.3833 1.8452 82.8366 2.40478C82.2813 2.95151 81.85 3.61353 81.5766 4.33961C81.3075 5.03583 81.1196 5.83015 81.0684 6.99185C81.0128 8.16222 81 8.53377 81 11.5022C81 14.4706 81.0128 14.8421 81.0641 16.0082C81.1153 17.1699 81.3033 17.9685 81.5724 18.6606C81.85 19.3951 82.2813 20.0528 82.8366 20.5996C83.3833 21.1548 84.0453 21.5862 84.7714 21.8595C85.4676 22.1286 86.2619 22.3165 87.4238 22.3677C88.5897 22.4191 88.9614 22.4318 91.9298 22.4318C94.8982 22.4318 95.2697 22.4191 96.4358 22.3677C97.5975 22.3165 98.3961 22.1286 99.088 21.8595C100.557 21.2914 101.719 20.1297 102.287 18.6606C102.556 17.9643 102.744 17.1699 102.795 16.0082C102.847 14.8421 102.859 14.4706 102.859 11.5022C102.859 8.53377 102.855 8.16222 102.804 6.99618ZM100.835 15.9227C100.788 16.9905 100.609 17.5671 100.459 17.9515C100.092 18.904 99.3358 19.6599 98.3833 20.0273C97.9989 20.1768 97.4181 20.3561 96.3545 20.403C95.2013 20.4544 94.8555 20.4671 91.9383 20.4671C89.0211 20.4671 88.6709 20.4544 87.5219 20.403C86.4541 20.3561 85.8775 20.1768 85.4931 20.0273C85.0191 19.8521 84.5877 19.5745 84.2375 19.2115C83.8745 18.8569 83.5968 18.4298 83.4217 17.9558C83.2722 17.5714 83.0928 16.9905 83.0459 15.9271C82.9946 14.7739 82.9819 14.4279 82.9819 11.5107C82.9819 8.5935 82.9946 8.2433 83.0459 7.09445C83.0928 6.02668 83.2722 5.45009 83.4217 5.06569C83.5968 4.59154 83.8745 4.16026 84.2418 3.8099C84.5962 3.44685 85.0233 3.16923 85.4975 2.99422C85.8819 2.84473 86.4628 2.66538 87.5262 2.61833C88.6794 2.56711 89.0255 2.55427 91.9425 2.55427C94.864 2.55427 95.2098 2.56711 96.3589 2.61833C97.4266 2.66538 98.0032 2.84473 98.3876 2.99422C98.8616 3.16923 99.293 3.44685 99.6432 3.8099C100.006 4.16443 100.284 4.59154 100.459 5.06569C100.609 5.45009 100.788 6.03085 100.835 7.09445C100.886 8.24764 100.899 8.5935 100.899 11.5107C100.899 14.4279 100.886 14.7695 100.835 15.9227Z" fill="white"/>
<path d="M91.9338 5.88572C88.8331 5.88572 86.3174 8.40132 86.3174 11.5022C86.3174 14.6031 88.8331 17.1186 91.9338 17.1186C95.0347 17.1186 97.5503 14.6031 97.5503 11.5022C97.5503 8.40132 95.0347 5.88572 91.9338 5.88572ZM91.9338 15.1454C89.9223 15.1454 88.2906 13.5139 88.2906 11.5022C88.2906 9.49044 89.9223 7.85892 91.9338 7.85892C93.9456 7.85892 95.5771 9.49044 95.5771 11.5022C95.5771 13.5139 93.9456 15.1454 91.9338 15.1454Z" fill="white"/>
<path d="M99.084 5.66368C99.084 6.38776 98.4969 6.97487 97.7726 6.97487C97.0485 6.97487 96.4614 6.38776 96.4614 5.66368C96.4614 4.93943 97.0485 4.35249 97.7726 4.35249C98.4969 4.35249 99.084 4.93943 99.084 5.66368Z" fill="white"/>
</svg>
