<svg width="25" height="25" viewBox="0 0 25 25" fill="none" xmlns="http://www.w3.org/2000/svg">
<g clip-path="url(#clip0_2216_1754)">
<path d="M9.6499 22.0547C10.2022 22.0547 10.6499 21.607 10.6499 21.0547C10.6499 20.5024 10.2022 20.0547 9.6499 20.0547C9.09762 20.0547 8.6499 20.5024 8.6499 21.0547C8.6499 21.607 9.09762 22.0547 9.6499 22.0547Z" stroke="white" stroke-width="2" stroke-linecap="round" stroke-linejoin="round"/>
<path d="M20.6499 22.0547C21.2022 22.0547 21.6499 21.607 21.6499 21.0547C21.6499 20.5024 21.2022 20.0547 20.6499 20.0547C20.0976 20.0547 19.6499 20.5024 19.6499 21.0547C19.6499 21.607 20.0976 22.0547 20.6499 22.0547Z" stroke="white" stroke-width="2" stroke-linecap="round" stroke-linejoin="round"/>
<path d="M1.6499 1.05469H5.6499L8.3299 14.4447C8.42135 14.9051 8.67181 15.3187 9.03745 15.613C9.40309 15.9073 9.8606 16.0637 10.3299 16.0547L15.1899 12.0547L20.0499 16.0547C20.5192 16.0637 20.9767 15.9073 21.3424 15.613C21.708 15.3187 21.9585 14.9051 22.0499 14.4447L23.6499 6.05469" stroke="white" stroke-width="2" stroke-linecap="round" stroke-linejoin="round"/>
</g>
<defs>
<clipPath id="clip0_2216_1754">
<rect width="24" height="24" fill="white" transform="translate(0.649902 0.0546875)"/>
</clipPath>
</defs>
</svg>
