<svg width="100" height="100" viewBox="0 0 100 100" fill="none" xmlns="http://www.w3.org/2000/svg">
<path d="M6.79167 1.95833C6.3617 1.9616 5.95027 2.13385 5.64623 2.43789C5.34219 2.74194 5.16994 3.15336 5.16667 3.58333V13.6542C5.16667 14.5375 5.90417 15.2792 6.79167 15.2792H93.2083C94.0958 15.2792 94.8333 14.5375 94.8333 13.6542V3.57916C94.8301 3.1492 94.6578 2.73777 94.3538 2.43373C94.0497 2.12969 93.6383 1.95743 93.2083 1.95416L6.79167 1.95833ZM6.60417 19.15C6.20131 19.1465 5.81018 19.2855 5.49987 19.5424C5.18957 19.7994 4.98005 20.1577 4.90833 20.5542L0.0333333 46.8625C0 46.975 0 47.0833 0 47.1958V56.0167C0 56.975 0.775 57.75 1.73333 57.75H98.2667C99.225 57.75 100 56.975 100 56.0167V47.1583C100 47.0458 100 46.9375 99.9625 46.825L95.0917 20.5542C95.02 20.1577 94.8104 19.7994 94.5001 19.5424C94.1898 19.2855 93.7987 19.1465 93.3958 19.15H6.60417ZM7.08333 61.5875C6.83117 61.5858 6.58119 61.6343 6.3479 61.73C6.11461 61.8257 5.90265 61.9669 5.72434 62.1452C5.54603 62.3235 5.40491 62.5354 5.30918 62.7687C5.21345 63.002 5.16501 63.252 5.16667 63.5042V96.125C5.16667 97.1958 6.0125 98.0417 7.08333 98.0417H65.8667C66.9375 98.0417 67.7833 97.1958 67.7833 96.125V68.6708C67.7833 67.6 68.6333 66.7542 69.7042 66.7542H86.4542C87.5292 66.7542 88.375 67.6 88.375 68.6708V96.125C88.375 97.1958 89.225 98.0417 90.2917 98.0417H92.875C93.1277 98.0444 93.3783 97.9968 93.6124 97.9015C93.8464 97.8062 94.0591 97.6652 94.2379 97.4867C94.4168 97.3083 94.5583 97.0959 94.6541 96.8621C94.7499 96.6283 94.7981 96.3777 94.7958 96.125V63.5042C94.7969 63.2522 94.7481 63.0024 94.6522 62.7694C94.5563 62.5363 94.4151 62.3246 94.2369 62.1464C94.0587 61.9682 93.847 61.8271 93.6139 61.7311C93.3809 61.6352 93.1312 61.5864 92.8792 61.5875H7.08333ZM14.7583 68.0458H47.4542C48.3375 68.0458 49.0792 68.7833 49.0792 69.6708V90C49.0792 90.8833 48.3375 91.625 47.4542 91.625H14.7583C14.3284 91.6217 13.9169 91.4495 13.6129 91.1454C13.3089 90.8414 13.1366 90.43 13.1333 90V69.6667C13.1333 68.7458 13.875 68.0458 14.7583 68.0458Z" fill="black"/>
</svg>
