<svg width="20" height="19" viewBox="0 0 20 19" fill="none" xmlns="http://www.w3.org/2000/svg">
<g clip-path="url(#clip0_214_1788)">
<path d="M2.37717 10.1218V8.88067C2.37717 4.59473 5.86402 1.10794 10.1499 1.10794C14.4358 1.10794 17.9226 4.59473 17.9226 8.88067V10.1218C18.9707 10.9104 19.6499 12.1644 19.6499 13.574C19.6499 15.9551 17.7128 17.8922 15.3317 17.8922C14.8548 17.8922 14.4681 17.5055 14.4681 17.0286V10.1195C14.4681 9.64251 14.8548 9.25583 15.3317 9.25583C15.6274 9.25583 15.9162 9.28583 16.1954 9.34277V8.88072C16.1954 5.54726 13.4834 2.83527 10.1499 2.83527C6.81644 2.83527 4.10445 5.54726 4.10445 8.88072V9.34277C4.38357 9.28583 4.67237 9.25583 4.96808 9.25583C5.44504 9.25583 5.83172 9.64251 5.83172 10.1195V17.0286C5.83172 17.5055 5.44504 17.8922 4.96808 17.8922C2.58704 17.8922 0.649902 15.9551 0.649902 13.574C0.649902 12.1643 1.32907 10.9104 2.37717 10.1218Z" fill="white"/>
</g>
<defs>
<clipPath id="clip0_214_1788">
<rect width="19" height="19" fill="white" transform="matrix(-1 0 0 1 19.6499 0)"/>
</clipPath>
</defs>
</svg>
