<svg width="24" height="24" viewBox="0 0 24 24" fill="none" xmlns="http://www.w3.org/2000/svg">
<path d="M1.38 9H22.62C23.3813 9 24 8.22656 24 7.275C24 6.93281 23.9175 6.6 23.7675 6.31875L20.9325 1.00312C20.5988 0.375 20.04 0 19.4363 0H4.56375C3.96375 0 3.40125 0.375 3.0675 1.00312L0.2325 6.31406C0.0825 6.6 0 6.93281 0 7.27031C0 8.22656 0.61875 9 1.38 9ZM2.4 10.5V18V21.75C2.4 22.9922 3.20625 24 4.2 24H12.6C13.5938 24 14.4 22.9922 14.4 21.75V18V10.5H12V18H4.8V10.5H2.4ZM19.2 10.5V22.5C19.2 23.3297 19.7363 24 20.4 24C21.0638 24 21.6 23.3297 21.6 22.5V10.5H19.2Z" fill="white"/>
</svg>
