<svg width="30" height="35" viewBox="0 0 30 35" fill="none" xmlns="http://www.w3.org/2000/svg">
<path d="M26.9325 11.5144C26.5809 11.116 26.104 10.8922 25.6068 10.8922C25.1097 10.8922 24.6328 11.116 24.2812 11.5144L15 22.0331L5.71872 11.5144C5.36509 11.1273 4.89146 10.9131 4.39984 10.9179C3.90822 10.9228 3.43795 11.1463 3.09031 11.5403C2.74267 11.9342 2.54548 12.4672 2.54121 13.0244C2.53694 13.5816 2.72593 14.1183 3.06747 14.5191L13.6743 26.5402C14.026 26.9386 14.5028 27.1624 15 27.1624C15.4972 27.1624 15.974 26.9386 16.3256 26.5402L26.9325 14.5191C27.284 14.1206 27.4814 13.5802 27.4814 13.0167C27.4814 12.4533 27.284 11.9129 26.9325 11.5144Z" fill="black"/>
</svg>
