<svg width="30" height="35" viewBox="0 0 30 35" fill="none" xmlns="http://www.w3.org/2000/svg">
<path d="M26.9325 12.1144C26.5809 11.716 26.104 11.4922 25.6068 11.4922C25.1097 11.4922 24.6328 11.716 24.2812 12.1144L15 22.6332L5.71872 12.1144C5.36509 11.7273 4.89146 11.5131 4.39984 11.518C3.90822 11.5228 3.43795 11.7463 3.09031 12.1403C2.74267 12.5343 2.54548 13.0673 2.54121 13.6244C2.53694 14.1816 2.72593 14.7184 3.06747 15.1192L13.6743 27.1403C14.026 27.5387 14.5028 27.7625 15 27.7625C15.4972 27.7625 15.974 27.5387 16.3256 27.1403L26.9325 15.1192C27.284 14.7207 27.4814 14.1803 27.4814 13.6168C27.4814 13.0533 27.284 12.5129 26.9325 12.1144Z" fill="black"/>
</svg>
