<svg width="20" height="19" viewBox="0 0 20 19" fill="none" xmlns="http://www.w3.org/2000/svg">
<g clip-path="url(#clip0_59_1151)">
<path d="M2.3773 10.1218V8.88067C2.3773 4.59473 5.86414 1.10794 10.15 1.10794C14.4359 1.10794 17.9228 4.59473 17.9228 8.88067V10.1218C18.9709 10.9104 19.65 12.1644 19.65 13.574C19.65 15.9551 17.7129 17.8922 15.3318 17.8922C14.8549 17.8922 14.4682 17.5055 14.4682 17.0286V10.1195C14.4682 9.64251 14.8549 9.25583 15.3318 9.25583C15.6276 9.25583 15.9164 9.28583 16.1955 9.34277V8.88072C16.1955 5.54726 13.4835 2.83527 10.15 2.83527C6.81656 2.83527 4.10457 5.54726 4.10457 8.88072V9.34277C4.3837 9.28583 4.6725 9.25583 4.96821 9.25583C5.44516 9.25583 5.83184 9.64251 5.83184 10.1195V17.0286C5.83184 17.5055 5.44516 17.8922 4.96821 17.8922C2.58716 17.8922 0.650024 15.9551 0.650024 13.574C0.650024 12.1643 1.32919 10.9104 2.3773 10.1218Z" fill="white"/>
</g>
<defs>
<clipPath id="clip0_59_1151">
<rect width="19" height="19" fill="white" transform="matrix(-1 0 0 1 19.65 0)"/>
</clipPath>
</defs>
</svg>
