<svg width="25" height="25" viewBox="0 0 25 25" fill="none" xmlns="http://www.w3.org/2000/svg">
<g clip-path="url(#clip0_59_1164)">
<path d="M9.65002 22.0547C10.2023 22.0547 10.65 21.607 10.65 21.0547C10.65 20.5024 10.2023 20.0547 9.65002 20.0547C9.09774 20.0547 8.65002 20.5024 8.65002 21.0547C8.65002 21.607 9.09774 22.0547 9.65002 22.0547Z" stroke="white" stroke-width="2" stroke-linecap="round" stroke-linejoin="round"/>
<path d="M20.65 22.0547C21.2023 22.0547 21.65 21.607 21.65 21.0547C21.65 20.5024 21.2023 20.0547 20.65 20.0547C20.0977 20.0547 19.65 20.5024 19.65 21.0547C19.65 21.607 20.0977 22.0547 20.65 22.0547Z" stroke="white" stroke-width="2" stroke-linecap="round" stroke-linejoin="round"/>
<path d="M1.65002 1.05469H5.65002L8.33002 14.4447C8.42147 14.9051 8.67193 15.3187 9.03757 15.613C9.40321 15.9073 9.86072 16.0637 10.33 16.0547L15.19 12.0547L20.05 16.0547C20.5193 16.0637 20.9768 15.9073 21.3425 15.613C21.7081 15.3187 21.9586 14.9051 22.05 14.4447L23.65 6.05469" stroke="white" stroke-width="2" stroke-linecap="round" stroke-linejoin="round"/>
</g>
<defs>
<clipPath id="clip0_59_1164">
<rect width="24" height="24" fill="white" transform="translate(0.650024 0.0546875)"/>
</clipPath>
</defs>
</svg>
