<svg width="21" height="19" viewBox="0 0 21 19" fill="none" xmlns="http://www.w3.org/2000/svg">
<path d="M0 2.71429C0 1.21719 1.17715 0 2.625 0H18.375C19.8229 0 21 1.21719 21 2.71429V16.2857C21 17.7828 19.8229 19 18.375 19H2.625C1.17715 19 0 17.7828 0 16.2857V2.71429ZM13.2809 7.23103C13.0963 6.95112 12.7928 6.78571 12.4688 6.78571C12.1447 6.78571 11.8371 6.95112 11.6566 7.23103L8.08828 12.6426L7.00137 11.2388C6.8127 10.9971 6.52969 10.8571 6.23438 10.8571C5.93906 10.8571 5.65195 10.9971 5.46738 11.2388L2.84238 14.6317C2.60449 14.9371 2.55938 15.3569 2.72344 15.7089C2.8875 16.0609 3.23203 16.2857 3.60938 16.2857H7.54688H8.85938H17.3906C17.7557 16.2857 18.092 16.0779 18.2602 15.7429C18.4283 15.4078 18.4078 15.0049 18.2027 14.6953L13.2809 7.23103ZM4.59375 6.78571C5.11589 6.78571 5.61665 6.57124 5.98587 6.18947C6.35508 5.8077 6.5625 5.28991 6.5625 4.75C6.5625 4.21009 6.35508 3.6923 5.98587 3.31053C5.61665 2.92876 5.11589 2.71429 4.59375 2.71429C4.07161 2.71429 3.57085 2.92876 3.20163 3.31053C2.83242 3.6923 2.625 4.21009 2.625 4.75C2.625 5.28991 2.83242 5.8077 3.20163 6.18947C3.57085 6.57124 4.07161 6.78571 4.59375 6.78571Z" fill="black"/>
</svg>
