<svg width="20" height="19" viewBox="0 0 20 19" fill="none" xmlns="http://www.w3.org/2000/svg">
<g clip-path="url(#clip0_52_782)">
<path d="M2.37717 10.1218V8.88064C2.37717 4.5947 5.86402 1.10791 10.1499 1.10791C14.4358 1.10791 17.9226 4.5947 17.9226 8.88064V10.1218C18.9707 10.9104 19.6499 12.1644 19.6499 13.574C19.6499 15.955 17.7128 17.8922 15.3317 17.8922C14.8548 17.8922 14.4681 17.5055 14.4681 17.0285V10.1194C14.4681 9.64248 14.8548 9.2558 15.3317 9.2558C15.6274 9.2558 15.9162 9.2858 16.1954 9.34274V8.88069C16.1954 5.54723 13.4834 2.83524 10.1499 2.83524C6.81644 2.83524 4.10445 5.54723 4.10445 8.88069V9.34274C4.38357 9.2858 4.67237 9.2558 4.96808 9.2558C5.44504 9.2558 5.83172 9.64248 5.83172 10.1194V17.0285C5.83172 17.5055 5.44504 17.8922 4.96808 17.8922C2.58704 17.8922 0.649902 15.955 0.649902 13.574C0.649902 12.1643 1.32907 10.9104 2.37717 10.1218Z" fill="white"/>
</g>
<defs>
<clipPath id="clip0_52_782">
<rect width="19" height="19" fill="white" transform="matrix(-1 0 0 1 19.6499 0)"/>
</clipPath>
</defs>
</svg>
